<?xml version="1.0" encoding="iso-8859-1"?>
<!-- Generator: Adobe Illustrator 19.0.0, SVG Export Plug-In . SVG Version: 6.00 Build 0)  -->
<svg version="1.1" id="Capa_1" xmlns="http://www.w3.org/2000/svg" xmlns:xlink="http://www.w3.org/1999/xlink" x="0px" y="0px"
	 viewBox="0 0 512 512" style="enable-background:new 0 0 512 512;" xml:space="preserve">
<path style="fill:#4FC16E;" d="M160.481,512c-35.011,0-63.495-28.483-63.495-63.495V155.329h30v293.176
	c0,18.47,15.026,33.495,33.495,33.495s33.495-15.025,33.495-33.495V338.244c0-35.012,28.484-63.495,63.495-63.495
	c35.012,0,63.495,28.483,63.495,63.495v43.534c0,18.47,15.026,33.495,33.495,33.495c18.47,0,33.495-15.025,33.495-33.495V253.63h30
	v128.148c0,35.012-28.483,63.495-63.495,63.495s-63.495-28.483-63.495-63.495v-43.534c0-18.47-15.025-33.495-33.495-33.495
	c-18.469,0-33.495,15.025-33.495,33.495v110.261C223.977,483.517,195.493,512,160.481,512z"/>
<g>
	<rect x="417.081" y="120.97" style="fill:#369151;" width="30" height="43.14"/>
	<rect x="358.831" y="120.97" style="fill:#369151;" width="30" height="43.14"/>
	<path style="fill:#369151;" d="M402.958,268.63c-32.345,0-58.658-26.313-58.658-58.657v-45.861h30h57.315h30v45.861
		C461.614,242.316,435.302,268.63,402.958,268.63z"/>
</g>
<rect x="326.971" y="149.11" style="fill:#4FC16E;" width="151.96" height="30"/>
<path style="fill:#C3EA21;" d="M111.234,270.987c0,0,78.165-52.436,78.165-135.493S111.234,0,111.234,0
	S33.069,52.436,33.069,135.493C33.069,218.551,111.234,270.987,111.234,270.987z"/>
<path style="fill:#8ADB53;" d="M111.234,270.987c0,0,78.165-52.436,78.165-135.493S111.234,0,111.234,0V270.987z"/>
<g>
</g>
<g>
</g>
<g>
</g>
<g>
</g>
<g>
</g>
<g>
</g>
<g>
</g>
<g>
</g>
<g>
</g>
<g>
</g>
<g>
</g>
<g>
</g>
<g>
</g>
<g>
</g>
<g>
</g>
</svg>
