<svg id="Capa_1" enable-background="new 0 0 512 512" height="512" viewBox="0 0 512 512" width="512" xmlns="http://www.w3.org/2000/svg"><path d="m336 200h-132.687l93.824-93.824c3.125-3.123 3.125-8.189 0-11.313-3.125-3.125-8.188-3.125-11.313 0l-93.824 93.824v-132.687c0-4.418-3.582-8-8-8s-8 3.582-8 8v132.688l-93.824-93.825c-3.125-3.125-8.188-3.125-11.313 0-3.125 3.123-3.125 8.189 0 11.313l93.825 93.824h-132.688c-4.418 0-8 3.582-8 8s3.582 8 8 8h132.688l-93.824 93.824c-3.125 3.123-3.125 8.189 0 11.313 1.563 1.563 3.609 2.344 5.656 2.344s4.094-.781 5.656-2.344l93.824-93.825v132.688c0 4.418 3.582 8 8 8s8-3.582 8-8v-132.688l93.824 93.824c1.563 1.563 3.609 2.344 5.656 2.344s4.094-.781 5.656-2.344c3.125-3.123 3.125-8.189 0-11.313l-93.823-93.823h132.687c4.418 0 8-3.582 8-8s-3.582-8-8-8z" fill="#ffcd6e"/><path d="m384 264h-80c-8.837 0-16-7.163-16-16 0-8.837 7.163-16 16-16h80c8.837 0 16 7.163 16 16 0 8.837-7.163 16-16 16z" fill="#ffe9aa"/><path d="m416 208h-32c-8.837 0-16-7.163-16-16 0-8.837 7.163-16 16-16h32c8.837 0 16 7.163 16 16 0 8.837-7.164 16-16 16z" fill="#ffe9aa"/><path d="m456 264h-16c-8.837 0-16-7.163-16-16 0-8.837 7.163-16 16-16h16c8.837 0 16 7.163 16 16 0 8.837-7.164 16-16 16z" fill="#ffe9aa"/><path d="m440.629 359.781c-12.809-19.773-21.395-31.781-32.629-31.781-10.93 0-18.242 4.625-31.281 13.484-21.154 14.381-49.931 33.782-105.245 19.214-25.775 14.798-55.622 23.302-87.474 23.302h-152c-17.673 0-32 14.327-32 32v8h504v-16c-32.137 0-49.457-26.734-63.371-48.219z" fill="#ffe9aa"/><g fill="#ffcd6e"><path d="m408 432c-4.418 0-8-3.582-8-8v-120c0-4.418 3.582-8 8-8s8 3.582 8 8v120c0 4.418-3.582 8-8 8z"/><path d="m456 432c-4.418 0-8-3.582-8-8v-80c0-4.418 3.582-8 8-8s8 3.582 8 8v80c0 4.418-3.582 8-8 8z"/><path d="m504 432c-4.418 0-8-3.582-8-8v-40c0-4.418 3.582-8 8-8s8 3.582 8 8v40c0 4.418-3.582 8-8 8z"/><path d="m360 432c-4.418 0-8-3.582-8-8v-96c0-4.418 3.582-8 8-8s8 3.582 8 8v96c0 4.418-3.582 8-8 8z"/><path d="m312 432c-4.418 0-8-3.582-8-8v-80c0-4.418 3.582-8 8-8s8 3.582 8 8v80c0 4.418-3.582 8-8 8z"/><path d="m216 432c-4.418 0-8-3.582-8-8v-64c0-4.418 3.582-8 8-8s8 3.582 8 8v64c0 4.418-3.582 8-8 8z"/><path d="m264 432c-4.418 0-8-3.582-8-8v-80c0-4.418 3.582-8 8-8s8 3.582 8 8v80c0 4.418-3.582 8-8 8z"/></g><path d="m504 392c-23.437 0-36.914-20.803-49.945-40.92-13.016-20.098-25.313-39.08-46.055-39.08-16.363 0-27.445 7.531-40.273 16.252-21.449 14.576-45.77 31.092-98.023 15.41-4.234-1.27-6.637-5.729-5.367-9.961 1.277-4.232 5.746-6.633 9.961-5.363 44.992 13.492 64.148.469 84.434-13.32 13.756-9.35 27.983-19.018 49.268-19.018 29.441 0 45.402 24.641 59.484 46.383 11.684 18.039 21.778 33.617 36.516 33.617 4.418 0 8 3.582 8 8s-3.582 8-8 8z" fill="#ffaf5a"/><path d="m184 288c-44.113 0-80-35.889-80-80s35.887-80 80-80 80 35.889 80 80-35.887 80-80 80zm0-144c-35.289 0-64 28.711-64 64s28.711 64 64 64 64-28.711 64-64-28.711-64-64-64z" fill="#ffaf5a"/><path d="m56 440c0 13.255 10.745 24 24 24h352c13.255 0 24-10.745 24-24z" fill="#ffaf5a"/><path d="m496 448h-480c-8.837 0-16-7.163-16-16l9.333-8h497l5.667 8c0 8.836-7.164 16-16 16z" fill="#d28755"/><path d="m184 368c-88.223 0-160-71.775-160-160s71.777-160 160-160 160 71.775 160 160-71.777 160-160 160zm0-304c-79.402 0-144 64.598-144 144s64.598 144 144 144 144-64.598 144-144-64.598-144-144-144z" fill="#ffaf5a"/><path d="m512 416h-226.802l-93.889-211.25c-1.281-2.889-4.148-4.75-7.309-4.75s-6.027 1.861-7.309 4.75l-93.888 211.25h-82.803v16h512zm-328-188.303 83.691 188.303h-167.382z" fill="#2d2d4b"/><path d="m192 104h-16c-4.418 0-8-3.582-8-8v-8c0-4.418 3.582-8 8-8h16c4.418 0 8 3.582 8 8v8c0 4.418-3.582 8-8 8z" fill="#29294b"/><circle cx="184" cy="56" fill="#d28755" r="8"/><path d="m344 256h-16c-4.418 0-8-3.582-8-8v-8c0-4.418 3.582-8 8-8h16c4.418 0 8 3.582 8 8v8c0 4.418-3.582 8-8 8z" fill="#29294b"/><circle cx="336" cy="208" fill="#d28755" r="8"/><path d="m40 256h-16c-4.418 0-8-3.582-8-8v-8c0-4.418 3.582-8 8-8h16c4.418 0 8 3.582 8 8v8c0 4.418-3.582 8-8 8z" fill="#29294b"/><circle cx="32" cy="208" fill="#d28755" r="8"/><path d="m192 408h-16c-4.418 0-8-3.582-8-8v-8c0-4.418 3.582-8 8-8h16c4.418 0 8 3.582 8 8v8c0 4.418-3.582 8-8 8z" fill="#29294b"/><circle cx="184" cy="360" fill="#d28755" r="8"/><path d="m84.543 148.855h-16c-4.418 0-8-3.582-8-8v-8c0-4.418 3.582-8 8-8h16c4.418 0 8 3.582 8 8v8c0 4.418-3.582 8-8 8z" fill="#29294b"/><circle cx="76.543" cy="100.855" fill="#d28755" r="8"/><path d="m299.71 148.855h-16c-4.418 0-8-3.582-8-8v-8c0-4.418 3.582-8 8-8h16c4.418 0 8 3.582 8 8v8c0 4.418-3.582 8-8 8z" fill="#29294b"/><circle cx="291.71" cy="100.855" fill="#d28755" r="8"/><path d="m84.543 363.48h-16c-4.418 0-8-3.582-8-8v-8c0-4.418 3.582-8 8-8h16c4.418 0 8 3.582 8 8v8c0 4.418-3.582 8-8 8z" fill="#29294b"/><circle cx="76.543" cy="315.48" fill="#d28755" r="8"/><path d="m299.71 363.48h-16c-4.418 0-8-3.582-8-8v-8c0-4.418 3.582-8 8-8h16c4.418 0 8 3.582 8 8v8c0 4.418-3.582 8-8 8z" fill="#29294b"/><circle cx="291.71" cy="315.48" fill="#d28755" r="8"/></svg>