<svg height="512pt" viewBox="0 -53 512 512" width="512pt" xmlns="http://www.w3.org/2000/svg"><path d="m512 386c0 11.046875-8.953125 20-20 20h-472c-11.046875 0-20-8.953125-20-20s8.953125-20 20-20h20v-286h-20c-11.046875 0-20-8.953125-20-20s8.953125-20 20-20h70v-20c0-11.046875 8.953125-20 20-20h60c11.046875 0 20 8.953125 20 20v20h132v-20c0-11.046875 8.953125-20 20-20h60c11.046875 0 20 8.953125 20 20v20h70c11.046875 0 20 8.953125 20 20s-8.953125 20-20 20h-20v168c0 11.046875-8.953125 20-20 20s-20-8.953125-20-20v-168h-352v286h352v-20c0-11.046875 8.953125-20 20-20s20 8.953125 20 20v20h20c11.046875 0 20 8.953125 20 20zm-295-66c-.015625 3.144531 2.714844 5.015625 6.210938 5 2.457031-.011719 5.050781-.996094 6.761718-2.699219l94.410156-108.011719c8.199219-9.476562 1.582032-24.289062-11-24.289062h-46.316406l30.296875-48.84375c2.746094-4.429688-.4375-10.15625-5.652343-10.15625h-55.140626c-2.40625 0-4.625 1.300781-5.800781 3.398438l-44.175781 78.769531c-7.53125 13.421875 2.246094 29.832031 17.71875 29.832031h40.175781l-26.875 74.492188c-.417969.914062-.609375 1.75-.613281 2.507812zm0 0"/></svg>